<svg width="193" height="193" viewBox="0 0 193 193" fill="none" xmlns="http://www.w3.org/2000/svg">
<path d="M54.2812 68.0245V52.2708C54.2812 28.9581 73.1872 10.0521 96.5 10.0521C119.813 10.0521 138.719 28.9581 138.719 52.2708V68.0245C152.317 71.2733 162.755 82.8131 164.661 96.9423C165.851 105.796 166.865 115.092 166.865 124.646C166.865 134.199 165.851 143.496 164.661 152.349C162.474 168.569 149.036 181.388 132.486 182.144C120.995 182.675 109.335 182.948 96.5 182.948C83.6655 182.948 72.0051 182.675 60.5135 182.144C43.9638 181.388 30.5262 168.569 28.3469 152.349C27.1487 143.496 26.1354 134.199 26.1354 124.646C26.1354 115.092 27.1487 105.796 28.3469 96.9423C30.2447 82.8131 40.6828 71.2733 54.2812 68.0245ZM96.5 78.4063C83.8424 78.4063 72.367 78.6797 61.0684 79.1943C50.5419 79.6768 41.7282 87.9115 40.2968 98.5506C39.1307 107.236 38.1979 115.905 38.1979 124.646C38.1979 133.387 39.1307 142.056 40.2968 150.741C41.7282 161.38 50.5419 169.607 61.0684 170.097C72.367 170.612 83.8424 170.885 96.5 170.885C109.158 170.885 120.633 170.612 131.932 170.097C142.458 169.607 151.272 161.38 152.703 150.741C153.869 142.056 154.802 133.387 154.802 124.646C154.802 115.905 153.869 107.236 152.703 98.5506C151.272 87.9115 142.458 79.6768 131.932 79.1943C120.633 78.6797 109.158 78.4063 96.5 78.4063ZM66.3438 52.2708V66.8986C75.9696 66.5368 85.8287 66.3438 96.5 66.3438C107.171 66.3438 117.03 66.5368 126.656 66.8986V52.2708C126.656 35.6166 113.154 22.1146 96.5 22.1146C79.8457 22.1146 66.3438 35.6166 66.3438 52.2708ZM108.49 124.646C108.49 120.207 112.093 116.604 116.532 116.604H116.604C121.043 116.604 124.646 120.207 124.646 124.646C124.646 129.085 121.043 132.688 116.604 132.688H116.532C112.093 132.688 108.49 129.085 108.49 124.646ZM68.3542 124.646C68.3542 120.207 71.9568 116.604 76.3958 116.604H76.4682C80.9072 116.604 84.5099 120.207 84.5099 124.646C84.5099 129.085 80.9072 132.688 76.4682 132.688H76.3958C71.9568 132.688 68.3542 129.085 68.3542 124.646Z" fill="#1D3353"/>
<circle cx="76.5" cy="124.5" r="8.5" fill="#D97706"/>
<circle cx="116.5" cy="124.5" r="8.5" fill="#D97706"/>
</svg>
